<?xml version="1.0" standalone="no"?>
<!DOCTYPE svg PUBLIC "-//W3C//DTD SVG 20010904//EN"
 "http://www.w3.org/TR/2001/REC-SVG-20010904/DTD/svg10.dtd">
<svg version="1.0" xmlns="http://www.w3.org/2000/svg"
 width="1000.000000pt" height="1000.000000pt" viewBox="0 0 1000.000000 1000.000000"
 preserveAspectRatio="xMidYMid meet">
<metadata>
Created by potrace 1.11, written by Peter Selinger 2001-2013
</metadata>
<g transform="translate(0.000000,1000.000000) scale(0.100000,-0.100000)"
fill="#000000" stroke="none">
<path d="M1209 9025 c-2 -1 -60 -6 -129 -10 -144 -8 -205 -13 -205 -15 0 0
-27 -4 -60 -7 -81 -7 -110 -11 -110 -13 0 -1 -9 -3 -20 -4 -19 -3 -60 -10
-135 -22 -109 -19 -279 -75 -367 -123 -188 -101 -232 -247 -118 -396 43 -58
85 -98 144 -139 51 -36 181 -109 181 -101 0 2 15 -1 33 -6 127 -39 276 -44
309 -11 35 35 11 88 -71 155 -12 9 -73 42 -135 72 -122 59 -135 69 -130 100 3
19 45 58 53 49 2 -2 9 1 16 6 6 5 27 12 46 15 19 2 45 7 59 10 68 15 558 27
566 13 2 -3 18 -2 36 2 17 5 35 7 40 4 5 -4 53 -8 107 -9 124 -5 298 -14 381
-20 36 -3 101 -7 145 -10 142 -10 181 -13 241 -20 33 -3 77 -8 99 -10 22 -2
63 -7 90 -10 28 -3 75 -8 105 -11 30 -2 66 -6 80 -9 23 -3 74 -11 140 -20 14
-2 61 -9 105 -15 45 -6 96 -12 115 -15 19 -3 46 -7 60 -10 14 -3 45 -8 70 -11
25 -3 54 -8 65 -10 11 -3 36 -7 55 -10 39 -6 42 -6 160 -29 47 -8 105 -20 130
-25 25 -5 57 -12 73 -15 25 -5 45 -8 100 -20 12 -2 72 -16 132 -30 61 -15 117
-28 125 -29 8 -1 29 -6 45 -10 91 -23 153 -38 175 -42 14 -2 36 -9 50 -14 14
-5 36 -12 50 -14 14 -3 43 -10 65 -16 22 -6 47 -13 55 -14 8 -2 40 -10 70 -19
30 -10 57 -17 60 -16 3 0 23 -6 45 -15 37 -14 128 -41 171 -51 11 -2 71 -22
134 -44 63 -21 118 -37 123 -34 4 2 7 0 7 -5 0 -5 6 -9 13 -9 7 0 45 -12 85
-27 40 -15 78 -29 85 -30 6 -2 23 -8 37 -13 14 -6 59 -22 100 -37 41 -15 82
-29 90 -33 8 -3 20 -7 25 -9 9 -2 320 -129 385 -157 14 -5 28 -10 32 -9 5 1 8
-3 8 -8 0 -6 6 -10 14 -10 7 0 49 -17 92 -37 44 -20 81 -37 84 -38 38 -12 375
-177 393 -193 9 -8 17 -11 17 -7 0 4 9 0 21 -11 12 -10 22 -17 23 -15 2 6 78
-34 201 -105 22 -13 54 -30 72 -38 124 -60 585 -358 803 -520 164 -122 138
-102 295 -232 182 -152 190 -160 375 -344 200 -199 231 -234 343 -375 108
-136 98 -123 127 -165 13 -19 28 -39 32 -45 68 -86 230 -371 282 -495 10 -25
26 -63 36 -85 49 -106 115 -345 126 -455 2 -25 8 -68 12 -96 9 -57 7 -274 -2
-344 -12 -85 -14 -98 -20 -117 -3 -10 -8 -31 -10 -48 -35 -201 -195 -523 -351
-705 -100 -117 -230 -244 -310 -304 -22 -17 -42 -33 -45 -36 -9 -11 -205 -145
-210 -144 -3 1 -23 -11 -45 -26 -22 -15 -56 -35 -75 -45 -107 -55 -156 -79
-160 -80 -3 0 -27 -11 -55 -24 -97 -45 -149 -65 -245 -98 -41 -13 -84 -29 -95
-34 -25 -11 -271 -78 -305 -83 -14 -2 -32 -6 -40 -9 -20 -8 -157 -37 -195 -41
-16 -2 -43 -6 -60 -9 -55 -10 -120 -20 -145 -22 -14 -1 -47 -5 -75 -9 -118
-15 -255 -26 -400 -31 -49 -2 -92 -4 -95 -5 -7 -2 -325 0 -370 2 -20 1 -41 -1
-48 -6 -7 -4 -12 -4 -12 1 0 4 -26 9 -58 10 -80 2 -227 11 -287 18 -74 8 -123
14 -195 21 -36 3 -68 8 -72 11 -5 2 -29 6 -55 8 -27 3 -59 7 -73 10 -14 3 -43
8 -65 10 -22 2 -60 9 -85 14 -25 6 -58 13 -75 15 -16 3 -41 7 -55 10 -29 7
-130 28 -145 30 -32 6 -53 19 -50 29 3 7 6 134 8 283 3 149 7 277 11 283 4 6
3 11 -3 11 -6 0 -7 11 -2 28 4 15 4 39 0 55 -4 15 -4 27 -1 27 4 0 6 39 4 87
-1 49 -2 93 -2 98 0 6 2 177 5 380 3 204 7 510 9 680 2 171 5 313 5 317 1 5
223 6 494 3 543 -6 639 -9 656 -19 6 -4 11 -2 11 4 0 6 4 8 10 5 5 -3 54 -8
107 -11 203 -11 238 -13 238 -14 0 -4 39 -8 121 -14 88 -6 145 -12 214 -22 19
-3 53 -7 75 -10 50 -7 80 -12 80 -14 0 -1 15 -3 34 -6 40 -5 80 -14 219 -47 7
-2 18 -9 25 -16 14 -15 2 -26 -154 -146 -57 -44 -129 -106 -161 -137 -53 -52
-57 -59 -51 -90 8 -43 20 -58 62 -75 55 -23 210 -17 297 13 84 28 193 85 271
140 80 57 233 204 233 223 0 6 4 11 9 11 5 0 25 33 44 73 76 154 67 227 -43
337 -89 90 -303 218 -470 280 -19 7 -39 16 -45 20 -5 4 -23 10 -40 14 -16 4
-43 13 -60 21 -27 11 -165 56 -190 61 -5 1 -35 9 -65 18 -58 16 -96 25 -145
33 -16 2 -39 8 -50 13 -11 5 -33 11 -50 14 -31 4 -82 14 -122 22 -13 2 -35 6
-50 9 -16 3 -37 7 -49 10 -23 5 -62 11 -134 20 -25 3 -54 7 -65 9 -19 3 -54 8
-178 21 -149 17 -183 20 -367 30 -74 4 -155 9 -180 10 -25 2 -161 4 -302 5
-236 1 -258 2 -259 18 -1 9 -3 37 -4 62 -3 44 -13 170 -21 258 -2 23 -6 61 -8
85 -13 140 -28 256 -36 277 -1 3 -2 9 -1 14 1 5 -3 39 -9 75 -5 36 -13 82 -15
101 -3 19 -11 60 -17 90 -6 30 -12 60 -14 65 -43 216 -106 388 -161 437 -25
23 -62 15 -91 -19 -28 -33 -76 -134 -88 -183 -10 -45 -8 -38 -23 -90 -13 -43
-39 -154 -46 -195 -1 -11 -6 -36 -9 -55 -4 -19 -8 -48 -11 -65 -2 -16 -6 -39
-9 -50 -2 -11 -7 -45 -11 -75 -8 -64 -13 -95 -15 -95 -1 0 -3 -16 -5 -35 -2
-19 -6 -57 -9 -85 -4 -27 -9 -70 -12 -95 -3 -25 -7 -56 -10 -70 -2 -14 -7 -59
-10 -100 -2 -41 -6 -88 -8 -105 -2 -16 -7 -66 -10 -110 -4 -44 -11 -83 -14
-87 -4 -3 -38 -9 -77 -12 -38 -4 -87 -9 -107 -11 -69 -9 -123 -16 -148 -20
-14 -2 -43 -7 -65 -9 -22 -3 -65 -10 -95 -16 -30 -6 -71 -13 -90 -16 -138 -22
-513 -120 -620 -161 -8 -4 -18 -7 -22 -8 -5 -2 -10 -4 -13 -5 -3 -1 -8 -3 -12
-5 -18 -5 -49 -17 -65 -26 -10 -5 -23 -9 -28 -9 -6 0 -30 -9 -52 -20 -23 -11
-48 -20 -55 -20 -7 0 -13 -4 -13 -10 0 -5 -6 -10 -12 -10 -11 0 -150 -68 -228
-111 -22 -12 -126 -81 -195 -129 -68 -47 -176 -149 -260 -246 -73 -83 -171
-261 -181 -329 -1 -5 -3 -12 -4 -15 -16 -43 -14 -271 3 -320 3 -8 8 -28 10
-45 7 -45 14 -73 38 -145 25 -79 119 -280 131 -280 4 0 8 -5 8 -12 0 -28 141
-215 250 -330 76 -81 256 -243 310 -278 12 -8 29 -22 38 -30 8 -8 25 -22 38
-30 100 -67 139 -96 142 -102 2 -5 8 -8 14 -8 6 0 26 -11 45 -26 18 -14 33
-22 33 -18 0 4 10 -1 23 -12 12 -10 33 -25 46 -32 50 -29 88 -50 131 -75 53
-31 305 -157 370 -185 25 -11 65 -29 90 -40 76 -33 211 -88 300 -122 47 -18
94 -36 105 -41 11 -4 44 -16 73 -25 45 -14 52 -20 53 -43 0 -14 2 -37 4 -51 2
-14 6 -63 9 -110 3 -47 8 -95 11 -108 2 -13 7 -53 11 -90 3 -37 7 -69 9 -72 2
-3 6 -26 10 -50 10 -77 53 -242 80 -310 57 -145 135 -220 230 -220 124 0 228
132 287 365 11 44 21 91 23 105 2 14 7 41 11 60 4 19 8 44 10 55 1 11 5 36 7
55 3 19 9 67 12 105 4 39 9 72 11 74 2 2 34 -3 71 -12 126 -30 325 -72 393
-82 14 -2 63 -11 110 -19 47 -8 101 -17 120 -20 19 -3 46 -8 60 -10 14 -3 48
-7 75 -11 28 -3 64 -8 80 -11 27 -4 69 -9 165 -18 36 -4 142 -13 265 -21 81
-6 552 -7 670 -1 119 6 263 16 320 22 28 3 68 7 90 9 40 4 123 12 180 19 27 3
59 8 145 22 14 2 41 6 60 9 19 2 46 7 60 10 14 3 39 7 55 10 47 7 81 14 340
70 11 3 61 16 110 31 50 14 99 27 110 28 11 2 21 5 23 6 1 1 7 4 12 5 6 1 12
4 15 5 3 1 10 4 15 5 6 1 13 4 18 5 4 2 12 4 17 5 6 0 35 10 65 20 30 11 57
20 60 20 6 1 80 29 205 78 130 51 308 134 410 192 28 16 66 37 85 48 54 30
235 151 238 159 2 5 10 8 17 8 7 0 15 3 17 8 2 4 37 34 78 67 41 33 82 66 90
75 9 8 34 31 56 51 107 99 314 341 314 368 0 5 4 11 8 13 11 4 139 219 134
226 -1 1 9 24 23 51 23 44 81 193 90 231 1 8 10 41 20 72 9 31 18 70 21 85 2
15 7 39 11 53 11 45 13 54 18 100 2 25 5 45 6 45 13 0 18 463 6 584 -8 80 -23
191 -32 231 -3 14 -8 41 -11 60 -3 19 -8 44 -11 55 -4 11 -8 27 -9 35 -7 48
-61 220 -103 329 -69 180 -75 195 -81 201 -3 3 -29 52 -59 110 -30 58 -70 130
-90 160 -20 30 -42 67 -50 82 -8 15 -22 37 -33 47 -10 11 -18 24 -18 29 0 4
-8 17 -18 28 -10 10 -28 35 -42 54 -109 159 -390 464 -570 620 -35 30 -72 64
-84 76 -19 19 -187 159 -211 176 -5 4 -26 20 -45 36 -82 67 -251 192 -260 192
-6 0 -10 5 -10 10 0 6 -4 10 -9 10 -6 0 -22 11 -37 25 -15 14 -33 25 -39 25
-7 0 -15 7 -19 15 -3 8 -12 15 -20 15 -8 0 -16 3 -18 8 -5 11 -245 172 -257
172 -5 0 -14 6 -18 13 -9 13 -34 30 -73 49 -14 7 -27 15 -30 18 -12 13 -91 60
-100 60 -5 0 -10 4 -10 9 0 5 -8 11 -17 15 -10 3 -31 15 -48 25 -16 11 -41 26
-55 34 -14 7 -41 23 -60 34 -164 95 -238 138 -320 182 -102 55 -542 274 -625
311 -27 12 -75 33 -105 47 -30 14 -68 31 -85 38 -16 7 -46 20 -65 28 -19 9
-75 32 -125 52 -49 21 -103 43 -120 50 -16 7 -68 27 -115 45 -47 17 -94 36
-105 41 -11 5 -47 18 -80 29 -33 12 -69 25 -80 30 -42 19 -463 160 -475 160
-5 0 -21 5 -37 12 -15 6 -37 13 -48 15 -11 2 -27 6 -35 10 -8 3 -19 7 -25 9
-158 47 -265 77 -285 81 -14 2 -29 6 -35 8 -5 1 -13 3 -17 4 -4 1 -22 7 -40
12 -18 6 -40 12 -48 14 -8 1 -42 10 -75 20 -33 9 -69 18 -80 20 -11 2 -67 16
-125 30 -58 14 -125 30 -150 35 -25 6 -54 12 -65 15 -37 9 -70 16 -95 21 -14
2 -36 7 -50 10 -24 6 -36 8 -93 18 -15 3 -35 7 -45 10 -18 5 -36 9 -137 26
-56 10 -147 27 -152 29 -6 2 -9 2 -38 6 -46 5 -119 16 -125 20 -3 1 -30 6 -61
9 -31 4 -67 9 -80 11 -21 4 -43 7 -139 20 -19 3 -55 7 -80 11 -25 3 -56 8 -70
9 -14 1 -52 6 -86 9 -33 4 -71 8 -85 11 -13 2 -55 6 -94 10 -38 3 -92 7 -120
10 -110 11 -277 23 -425 31 -121 7 -886 15 -891 9z m2536 -4582 c-4 -70 -8
-159 -10 -198 -2 -38 -6 -144 -10 -235 -3 -91 -8 -208 -10 -260 -8 -202 -18
-657 -19 -917 -1 -150 -4 -274 -7 -277 -5 -5 -270 93 -322 119 -17 8 -33 15
-37 15 -4 0 -41 15 -81 34 -41 18 -77 34 -81 35 -4 1 -79 37 -165 80 -169 84
-391 209 -485 272 -31 21 -61 39 -67 39 -5 0 -11 4 -13 8 -1 5 -25 24 -53 43
-52 35 -126 90 -135 99 -3 3 -30 25 -60 50 -146 119 -279 274 -331 388 -77
168 -17 334 166 458 57 38 183 104 199 104 8 0 16 3 18 8 3 8 169 65 178 61 3
-1 14 3 26 9 11 6 32 13 45 16 13 3 51 13 84 21 33 9 71 18 85 21 188 38 227
45 331 59 19 3 45 7 58 10 13 2 41 5 62 7 22 1 39 5 39 10 0 4 6 5 14 2 7 -3
49 0 92 5 77 11 211 23 267 25 15 1 27 3 27 6 0 3 45 6 101 8 l100 3 -6 -128z"/>
</g>
</svg>
